<svg id="visual" viewBox="0 0 198 46" width="198" height="46" xmlns="http://www.w3.org/2000/svg" xmlns:xlink="http://www.w3.org/1999/xlink" version="1.1"><path d="M0 11L4.7 14C9.3 17 18.7 23 28.2 23.7C37.7 24.3 47.3 19.7 56.8 18.7C66.3 17.7 75.7 20.3 85 21.3C94.3 22.3 103.7 21.7 113 20.5C122.3 19.3 131.7 17.7 141.2 16.2C150.7 14.7 160.3 13.3 169.8 13.2C179.3 13 188.7 14 193.3 14.5L198 15L198 47L193.3 47C188.7 47 179.3 47 169.8 47C160.3 47 150.7 47 141.2 47C131.7 47 122.3 47 113 47C103.7 47 94.3 47 85 47C75.7 47 66.3 47 56.8 47C47.3 47 37.7 47 28.2 47C18.7 47 9.3 47 4.7 47L0 47Z" fill="#4262f6" stroke-linecap="round" stroke-linejoin="miter"></path></svg>